<?xml version="1.0" encoding="utf-8"?>
<!-- Generator: Adobe Illustrator 27.5.0, SVG Export Plug-In . SVG Version: 6.00 Build 0)  -->
<svg version="1.1" xmlns="http://www.w3.org/2000/svg" xmlns:xlink="http://www.w3.org/1999/xlink" x="0px" y="0px"
	 viewBox="0 0 500 500" style="enable-background:new 0 0 500 500;" xml:space="preserve">
<g id="BACKGROUND">
	<rect style="fill:#FFFFFF;" width="500" height="500"/>
</g>
<g id="OBJECT">
	<g>
		<rect x="0.814" style="fill:#FFFFFF;" width="498.371" height="500"/>
		<g>
			<rect x="95.751" y="89.721" style="opacity:0.3;fill:#D9D9D9;" width="94.055" height="48.908"/>
			<rect x="358.162" y="176.722" style="opacity:0.3;fill:#D9D9D9;" width="78.692" height="48.595"/>
			<rect x="60.011" y="127.813" style="opacity:0.3;fill:#D9D9D9;" width="64.897" height="61.136"/>
			<rect x="139.017" y="176.721" style="opacity:0.3;fill:#D9D9D9;" width="46.557" height="24.925"/>
			<rect x="240.596" y="62.603" style="opacity:0.3;fill:#D9D9D9;" width="46.556" height="24.925"/>
			<rect x="73.806" y="223.121" style="opacity:0.3;fill:#D9D9D9;" width="46.556" height="24.925"/>
			<rect x="381.676" y="254.473" style="opacity:0.3;fill:#D9D9D9;" width="46.557" height="24.924"/>
		</g>
		<g>
			<path style="fill:#FBDAD3;" d="M151.482,253.682c-32.843,19.322-48.323,48.524-23.025,50.248
				c25.3,1.725,86.795-51.998,86.795-51.998l-11.623-25.981C203.629,225.95,184.325,234.363,151.482,253.682z"/>
			<g>
				<g>
					<g>
						<g>
							<g>
								<polygon style="fill:#FFCDC5;" points="267.609,213.684 264.968,185.396 235.02,185.396 232.378,213.684 211.135,219.563 
									228.697,263.805 271.286,263.805 288.851,219.563 								"/>
							</g>
							<g>
								<path style="fill:#FBDAD3;" d="M285.399,174.974c0,18.435-15.871,33.378-35.453,33.378s-35.455-14.943-35.455-33.378
									c0-55.479,15.873-57.563,35.455-57.563S285.399,125.508,285.399,174.974z"/>
								<path style="fill:#FBDAD3;" d="M278.058,167.648c0,5.855,3.352,10.605,7.482,10.605c4.134,0,7.491-4.75,7.491-10.605
									c0-5.85-3.358-10.603-7.491-10.603C281.409,157.046,278.058,161.799,278.058,167.648"/>
								<path style="fill:#FBDAD3;" d="M206.425,167.648c0,5.855,3.352,10.605,7.482,10.605c4.137,0,7.499-4.75,7.499-10.605
									c0-5.85-3.362-10.603-7.499-10.603C209.776,157.046,206.425,161.799,206.425,167.648"/>
							</g>
						</g>
					</g>
				</g>
				<path style="fill:#DD7957;" d="M266.043,157.504c-0.323-0.041-0.645-0.08-0.964-0.123c-1.038-0.141-2.066-0.354-3.094-0.554
					c-0.594-0.116-1.187-0.234-1.782-0.354c-2.053-0.415-4.095-0.887-6.106-1.473c-1.835-0.535-3.644-1.167-5.399-1.931
					c-1.6-0.696-3.152-1.496-4.648-2.396c-1.375-0.826-2.701-1.73-3.987-2.689c-1.151-0.857-2.272-1.76-3.374-2.684
					c-0.916-0.771-1.817-1.559-2.705-2.358c-0.649-0.588-1.296-1.185-1.924-1.798c-0.391-0.381-0.779-0.768-1.139-1.184
					c-0.207-0.238-0.4-0.486-0.581-0.746c-0.024-0.034-0.067-0.134-0.103-0.15l-10.624-5.004l-4.574,16.793
					c20.856,15.221,45.771,10.974,53.937,7.84c0.671-0.258,0.102-0.545-0.284-0.672
					C267.834,157.738,266.934,157.618,266.043,157.504z"/>
				<g>
					<g>
						<g>
							<path style="opacity:0.5;fill:#F49090;" d="M245.645,178.566c0.03,1.769,1.811,3.189,3.976,3.156
								c2.166-0.033,3.899-1.508,3.871-3.277c-0.026-1.783-1.842-1.171-4.006-1.251
								C247.317,177.111,245.617,176.786,245.645,178.566z"/>
							<path style="fill:#594A42;" d="M259.867,171.545c0.045,2.818,2.068-1.072,4.66-1.111c2.576-0.042,4.727,3.781,4.681,0.965
								c-0.044-2.818-1.704-5.082-4.748-5.03C261.417,166.413,259.824,168.726,259.867,171.545z"/>
						</g>
					</g>
					<path style="fill:#594A42;" d="M230.4,171.617c0.045,2.816,2.071-1.074,4.66-1.115c2.578-0.041,4.729,3.783,4.683,0.968
						c-0.043-2.819-1.702-5.087-4.751-5.034C231.945,166.48,230.355,168.795,230.4,171.617z"/>
					<path style="fill:#F49090;" d="M264.868,187.868c0.099,6.304-6.716,12.104-15.238,12.235
						c-8.516,0.135-15.51-5.446-15.611-11.754c-0.096-6.308,6.899-0.485,15.419-0.619C257.959,187.6,264.77,181.559,264.868,187.868
						z"/>
					<path style="fill:#FFABAB;" d="M249.531,193.496c-4.038,0.064-7.686,1.408-10.4,3.467c2.778,1.973,6.465,3.205,10.499,3.141
						c4.039-0.064,7.682-1.41,10.401-3.469C257.252,194.666,253.567,193.43,249.531,193.496z"/>
					<path style="fill:#FFFFFF;" d="M261.249,185.16c-2.823,0.576-7.05,2.496-11.811,2.57c-4.377,0.067-8.348-1.428-11.168-2.051
						c1.093,2.605,3.865,5.416,11.182,5.303C256.948,190.865,260.156,187.838,261.249,185.16z"/>
				</g>
				<g>
					<g>
						<path style="fill:#DD7957;" d="M269.306,132.524c0,0,17.081,19.388,17.081,38.344c0,0,12.499-33.175-1.081-47.392"/>
						<path style="fill:#DD7957;" d="M231.117,132.524c0,0-17.077,19.388-17.077,38.344c0,0-12.498-33.175,1.08-47.392"/>
					</g>
					<path style="fill:#DD7957;" d="M282.047,108.037c0.521,0.449-7.679,5.006-8.234,5.175c-8.69,2.635-17.17-2.222-25.729-3.112
						c-9.612-1-20.486,0.631-28.291,6.709c-4.912,3.822-9.958,10.686-9.06,17.211c1.828,13.31,18.622,17.996,29.591,20.273
						c9.054,1.879,18.558,2.67,27.638,0.52c3.678-0.873,7.628-2.523,10.696-4.766c2.792-2.039,5.974-5.21,7.604-8.289
						c3.547-6.705,4.67-16.004,2.264-23.252C287.353,114.969,284.917,110.506,282.047,108.037z"/>
					<path style="fill:#DD7957;" d="M294.588,126.531c-0.199-2.289-1.027-5.318-2.398-7.209c0.25,0.344-5.324,1.911-5.682,1.934
						c-5.018,0.308-9.075-2.974-13.478-4.922c-3.388,6.836-4.867,18.922-6.265,26.689c-0.034,0.191-0.066,0.387-0.101,0.578
						c3.363,1.102,6.851,1.799,10.4,1.799c2.334,0.004,4.94-0.426,7.1-1.335c1.968-0.825,4.333-2.276,5.751-3.895
						C293,136.652,295.001,131.227,294.588,126.531z"/>
				</g>
			</g>
			<path style="fill:#FBDAD3;" d="M353.801,266.961c-29.796-29.074-47.919-43.275-47.919-43.275l-17.379,21.915
				c0,0,52.135,71.661,78.542,77.761C393.455,329.461,383.597,296.037,353.801,266.961z"/>
			<g>
				<path style="fill:#F24656;" d="M322.397,225.029l-54.787-12.981c0,0,0.464,12.846-17.609,12.846s-17.613-12.846-17.613-12.846
					l-55.043,12.886l21.154,54.307l-5.47,96.143h113.943l-5.858-94.563L322.397,225.029z"/>
			</g>
			<g>
				<path style="fill:#FFFFFF;" d="M277.274,272.596c0,6.178-5.009,11.188-11.187,11.188H233.84c-6.179,0-11.188-5.01-11.188-11.188
					V260.31c0-6.178,5.009-11.187,11.188-11.187h32.248c6.178,0,11.187,5.01,11.187,11.187V272.596z"/>
				<polygon style="fill:#F24656;" points="244.256,255.641 262.033,265.904 244.256,276.168 				"/>
			</g>
			<polygon style="fill:#F24656;" points="322.397,225.029 294.927,270.684 336,309.275 370.741,275.592 			"/>
			<polygon style="fill:#F24656;" points="177.544,224.846 204.181,276.398 159.662,298.344 132.508,259.35 			"/>
			<g>
				<g>
					<path style="fill:#FBDAD3;" d="M384.873,268.041c-1.419-13.06-3.696-26.238-2.431-39.406
						c-7.932,0.654-15.863,1.306-23.785,2.072c0.311,2.406,0.076,4.479-0.491,7.263c-1.039,5.124-1.338,10.443-2.12,15.626
						c-2.276,15.1-5.652,30.164-5.279,45.514c0.266,11.217,5.961,20.994,17.16,24.771c3.368,1.135,6.964,1.162,10.13-1.041
						c5.092-3.529,5.659-11.295,6.449-16.445c1.459-9.334,1.826-18.391,1.273-27.697
						C385.572,275.139,385.274,271.576,384.873,268.041z"/>
				</g>
				<g>
					<path style="fill:#FBDAD3;" d="M357.912,208.355c0,0-3.935-19.273-5.44-26.438c-1.504-7.164,8.784-12.004,12.166,6.297
						c3.301,17.858,5.635,20.946,5.635,20.946"/>
					<path style="fill:#FBDAD3;" d="M364.575,204.451c0,0,5.551-20.095,7.152-27.55c1.603-7.457,13.18-7.922,8.657,10.936
						c-4.413,18.401-3.54,22.298-3.54,22.298"/>
					<path style="fill:#FBDAD3;" d="M387.411,214.035c-1.826,8.777-8.547,24.974-8.547,24.974l2.75,10.104l-24.438,0.316
						l4.844-12.534l-1.963-2.749c0,0-12.021-12.335-12.383-19.689c-0.36-7.355,10.675-14.847,10.675-14.847"/>
					<path style="fill:#FBDAD3;" d="M384.626,223.901c0,0,4.525-12.424,3.353-16.505c-1.172-4.081-9.351-11.875-9.351-11.875
						l-6.087,1.75l-2.928,12.331"/>
				</g>
			</g>
			<g>
				<polygon style="fill:#D9D9D9;" points="430.775,336.166 69.226,336.166 46.23,367.805 453.77,367.805 				"/>
				<rect x="46.23" y="367.805" style="fill:#ECECEC;" width="407.539" height="11.168"/>
			</g>
			<g>
				<g>
					<polygon style="fill:#BF8F60;" points="305.555,340.135 192.678,341.916 194.23,278.328 304.197,278.328 					"/>
					<polygon style="fill:#CEA06E;" points="304.197,278.328 304.2,339.926 311.997,361.81 312.011,308.824 					"/>
					<polygon style="fill:#CEA06E;" points="194.23,278.328 194.088,339.926 186.292,361.81 186.292,309.125 					"/>
					<polygon style="fill:#E1B785;" points="330.33,301.063 304.197,278.328 312.011,309.147 341.329,333.223 					"/>
					<polygon style="fill:#E1B785;" points="168.378,301.063 157.378,333.223 186.658,309.16 194.23,278.328 					"/>
				</g>
				<g>
					<polygon style="fill:#ECECEC;" points="301.814,340.684 301.824,296.75 295.306,271.041 203.567,271.041 196.945,296.734 
						196.945,340.684 202.86,324.078 295.377,322.619 					"/>
					<g>
						<polygon style="fill:#D9D9D9;" points="301.814,340.684 196.945,340.684 196.945,296.734 301.824,296.75 						"/>
					</g>
				</g>
				<g>
					<polygon style="fill:#E1B785;" points="311.997,361.81 186.292,361.81 186.292,309.125 312.011,309.147 					"/>
				</g>
			</g>
			<g>
				<g>
					<g>
						<path style="fill:#FBDAD3;" d="M152.415,319.873c38.18,9.9,58.706,9.527,58.706,9.527l4.11-21.744
							c0,0-63.463-33.389-85.869-27.08C104.647,287.533,114.236,309.969,152.415,319.873z"/>
					</g>
				</g>
				<g>
					<path style="fill:#FBDAD3;" d="M219.761,307.193c0,0,18.687,4.17,25.65,5.68c6.965,1.512,7.173,12.578-10.432,8.305
						c-17.178-4.17-20.85-3.324-20.85-3.324L219.761,307.193z"/>
					<path style="fill:#FBDAD3;" d="M213.655,313.195c0,0,27.765,8.693,34.608,10.674c6.847,1.982,6.303,13.037-10.972,7.578
						c-16.854-5.328-29.008-2.353-29.008-2.353L213.655,313.195z"/>
					<path style="fill:#FBDAD3;" d="M216.797,323.039c0,0,18.07,6.326,24.809,8.643c6.74,2.316,5.651,13.33-11.331,7.025
						c-16.572-6.15-20.318-5.74-20.318-5.74L216.797,323.039z"/>
					<path style="fill:#FBDAD3;" d="M205.573,333.537c0,0,15.469,10.025,21.433,13.01c5.963,2.984,13.28-5.512-2.087-12.705
						c-14.994-7.02-17.074-9.873-17.074-9.873L205.573,333.537z"/>
					<path style="fill:#FBDAD3;" d="M208.499,335.316c0,0-11.427-6.482-12.513-11.773l-8.69-0.576l4.795-20.516l9.063,2.791
						c0,0,5.81-6.451,10.385-6.039c4.574,0.412,16.541,0.805,19.391-1.217c2.852-2.02,7.075,9.611-6.48,10.35l-6.69,4.471"/>
				</g>
			</g>
			<g>
				<path style="fill:#CEA06E;" d="M420.78,356.281c0,2.258-9.542,4.088-21.313,4.088s-21.311-1.83-21.311-4.088
					c0-2.26,9.541-4.09,21.311-4.09S420.78,354.022,420.78,356.281z"/>
				<polygon style="fill:#CEA06E;" points="375.786,340.336 378.156,356.281 420.78,356.281 423.464,340.336 				"/>
				<ellipse style="fill:#E1B785;" cx="399.468" cy="339.389" rx="27.153" ry="5.209"/>
				<polygon style="fill:#E1B785;" points="370.894,330.389 372.393,339.9 426.621,339.9 428.042,330.389 				"/>
				<path style="fill:#CEA06E;" d="M428.042,330.389c0,2.879-12.793,5.211-28.574,5.211c-15.781,0-28.574-2.332-28.574-5.211
					c0-2.877,12.793-5.209,28.574-5.209C415.249,325.18,428.042,327.512,428.042,330.389z"/>
				<path style="fill:#A57B51;" d="M419.161,331.338c0,1.982-8.817,3.59-19.693,3.59c-10.877,0-19.694-1.607-19.694-3.59
					c0-1.982,8.817-3.59,19.694-3.59C410.344,327.748,419.161,329.355,419.161,331.338z"/>
				<g>
					<defs>
						<path id="SVGID_1_" d="M419.161,331.338c0,1.982-8.817,3.59-19.693,3.59c-10.877,0-19.694-1.607-19.694-3.59
							c0-1.982,2.091-42.23,19.694-42.23C410.344,289.107,419.161,329.355,419.161,331.338z"/>
					</defs>
					<clipPath id="SVGID_00000166647340440391880020000002376442709270722479_">
						<use xlink:href="#SVGID_1_"  style="overflow:visible;"/>
					</clipPath>
					<g style="clip-path:url(#SVGID_00000166647340440391880020000002376442709270722479_);">
						<g>
							<path style="fill:#A2C037;" d="M397.021,334.455c0-1.303-1.185-2.25-1.776-3.315c-1.065-1.777-1.54-3.553-1.658-5.684
								c-0.236-5.447,1.658-10.303,2.487-15.629c0.947-4.855,2.249-11.723-0.474-16.221c4.144,7.104,6.986,14.918,7.459,23.207
								c0.118,2.484,1.539,18.824-1.895,18.351"/>
						</g>
						<g>
							<path style="fill:#A2C037;" d="M398.054,341.875c0.344-1.254-0.549-2.48-0.838-3.666c-0.559-1.992-0.548-3.832-0.099-5.918
								c1.208-5.316,4.316-9.5,6.522-14.42c2.194-4.432,5.264-10.713,3.823-15.771c2.123,7.947,2.802,16.232,1.071,24.353
								c-0.541,2.43-3.481,18.566-6.669,17.203"/>
						</g>
						<g>
							<path style="fill:#A2C037;" d="M397.869,344.254c-0.359-1.254-1.759-1.838-2.621-2.699c-1.514-1.412-2.459-2.99-3.16-5.006
								c-1.727-5.172-1.244-10.359-1.916-15.711c-0.428-4.926-1.067-11.887-4.926-15.461c5.941,5.688,10.827,12.416,13.566,20.252
								c0.799,2.357,6.667,17.674,3.235,18.164"/>
						</g>
					</g>
				</g>
			</g>
			<g>
				<g>
					<path style="fill:#868686;" d="M136.503,350.387c0,2.205-7.85,3.994-17.532,3.994s-17.532-1.789-17.532-3.994
						c0-2.207,7.85-3.996,17.532-3.996S136.503,348.18,136.503,350.387z"/>
					<path style="fill:#868686;" d="M136.503,355.713c0,2.205-7.85,3.992-17.532,3.992s-17.532-1.787-17.532-3.992
						c0-2.207,7.85-3.994,17.532-3.994S136.503,353.506,136.503,355.713z"/>
					<polyline style="fill:#868686;" points="101.438,350.387 101.438,355.713 136.503,355.713 136.503,350.164 					"/>
				</g>
				<g>
					<path style="fill:#F24656;" d="M138.204,343.914c0,2.42-8.611,4.383-19.233,4.383s-19.232-1.963-19.232-4.383
						c0-2.42,8.61-4.385,19.232-4.385S138.204,341.494,138.204,343.914z"/>
					<path style="fill:#F24656;" d="M138.204,349.756c0,2.42-8.611,4.383-19.233,4.383s-19.232-1.963-19.232-4.383
						c0-2.42,8.61-4.383,19.232-4.383S138.204,347.336,138.204,349.756z"/>
					<polyline style="fill:#F24656;" points="99.738,343.914 99.738,349.756 138.204,349.756 138.204,343.67 					"/>
				</g>
				<g>
					<ellipse style="fill:#868686;" cx="118.971" cy="341.484" rx="19.479" ry="4.438"/>
					<path style="fill:#868686;" d="M138.45,347.402c0,2.451-8.722,4.438-19.48,4.438s-19.479-1.986-19.479-4.438
						c0-2.451,8.722-4.439,19.479-4.439S138.45,344.951,138.45,347.402z"/>
					<polyline style="fill:#868686;" points="99.491,341.484 99.491,347.402 138.45,347.402 138.45,341.238 					"/>
				</g>
				<g>
					<path style="fill:#6F6F6E;" d="M138.45,335.518c0,2.451-8.722,4.439-19.48,4.439s-19.479-1.988-19.479-4.439
						s8.722-4.438,19.479-4.438S138.45,333.066,138.45,335.518z"/>
					<path style="fill:#6F6F6E;" d="M138.45,341.435c0,2.451-8.722,4.438-19.48,4.438s-19.479-1.986-19.479-4.438
						c0-2.451,8.722-4.439,19.479-4.439S138.45,338.984,138.45,341.435z"/>
					<polyline style="fill:#6F6F6E;" points="99.491,335.518 99.491,341.435 138.45,341.435 138.45,335.272 					"/>
				</g>
				<g>
					<path style="fill:#585857;" d="M136.576,329.393c0,2.215-7.883,4.01-17.605,4.01c-9.723,0-17.604-1.795-17.604-4.01
						c0-2.217,7.882-4.014,17.604-4.014C128.693,325.379,136.576,327.176,136.576,329.393z"/>
					<path style="fill:#585857;" d="M136.576,334.738c0,2.219-7.883,4.014-17.605,4.014c-9.723,0-17.604-1.795-17.604-4.014
						c0-2.215,7.882-4.01,17.604-4.01C128.693,330.728,136.576,332.523,136.576,334.738z"/>
					<polyline style="fill:#585857;" points="101.366,329.393 101.366,334.738 136.576,334.738 136.576,329.17 					"/>
					<path style="fill:#868686;" d="M130.362,329.393c0,1.432-5.1,2.594-11.392,2.594s-11.392-1.162-11.392-2.594
						c0-1.434,5.1-2.596,11.392-2.596S130.362,327.959,130.362,329.393z"/>
				</g>
			</g>
		</g>
		<g>
			<g>
				<polyline style="fill:#F24656;" points="354.165,159.557 363.57,177.427 374.151,159.086 				"/>
				<g>
					<rect x="315.289" y="132.377" style="fill:#F24656;" width="101.332" height="30.088"/>
					
						<text transform="matrix(1 0 0 1 324.2324 154.6333)" style="fill:#FFFFFF; font-family:'Montserrat-ExtraBold'; font-size:18.3477px;">Follow</text>
				</g>
			</g>
			<polygon style="opacity:0.3;fill:#3F3E3E;" points="431.982,137.242 334.806,134.711 336.401,103.357 429.173,102.418 			"/>
			<rect x="333.893" y="99.91" style="fill:#F24656;" width="95.581" height="33.883"/>
			<g>
				<polygon style="opacity:0.3;fill:#3F3E3E;" points="397.066,106.682 320.188,102.771 319.579,68.816 393.656,68.816 				"/>
				<rect x="319.657" y="67.25" style="fill:#F24656;" width="74.077" height="35.866"/>
				
					<text transform="matrix(1 0 0 1 329.4873 92.6382)" style="fill:#FFFFFF; font-family:'Montserrat-ExtraBold'; font-size:22.5093px;">Like</text>
			</g>
			
				<text transform="matrix(1 0 0 1 344.7617 123.0562)" style="fill:#FFFFFF; font-family:'Montserrat-ExtraBold'; font-size:20.6632px;">Share</text>
		</g>
	</g>
	<g>
		<defs>
			<rect id="SVGID_00000101077306624690814560000003606003628162402212_" x="0.814" width="498.371" height="500"/>
		</defs>
		<clipPath id="SVGID_00000103235685732513548500000017752306860655892624_">
			<use xlink:href="#SVGID_00000101077306624690814560000003606003628162402212_"  style="overflow:visible;"/>
		</clipPath>
		<g style="clip-path:url(#SVGID_00000103235685732513548500000017752306860655892624_);">
			<g>
				<polygon style="fill:#6F6F6E;" points="277.069,593.369 247.288,445.846 245.979,446.111 245.979,444.852 240.979,444.852 
					240.979,446.06 239.919,445.846 210.138,593.369 215.038,594.359 240.979,465.861 240.979,595.352 245.979,595.352 
					245.979,464.623 272.169,594.359 				"/>
				<g>
					<g>
						<path style="fill:#585857;" d="M215.052,449.143c-3.003,0-5.447-2.443-5.447-5.447v-33.938c0-3.004,2.444-5.447,5.447-5.447
							h57.937c3.004,0,5.447,2.443,5.447,5.447v33.938c0,3.004-2.443,5.447-5.447,5.447H215.052z"/>
						<path style="fill:#6F6F6E;" d="M175.211,430.639c-7.135,0-12.939-5.805-12.939-12.94v-80.611
							c0-7.135,5.805-12.939,12.939-12.939H312.83c7.135,0,12.938,5.805,12.938,12.939v80.611c0,7.135-5.804,12.94-12.938,12.94
							H175.211z"/>
						<path style="fill:#6F6F6E;" d="M223.61,340.52c-2.117,0-3.839-1.721-3.839-3.838v-23.91c0-2.117,1.722-3.838,3.839-3.838
							h40.82c2.116,0,3.838,1.721,3.838,3.838v23.91c0,2.117-1.722,3.838-3.838,3.838H223.61z"/>
						<path style="fill:#585857;" d="M229.719,476.602c-3.003,0-5.447-2.443-5.447-5.447v-33.938c0-3.004,2.444-5.447,5.447-5.447
							h27.937c3.004,0,5.447,2.443,5.447,5.447v33.938c0,3.004-2.443,5.447-5.447,5.447H229.719z"/>
						<path style="fill:#585857;" d="M209.311,467.727c-0.779,0-1.414-0.635-1.414-1.414v-8.81c0-0.781,0.635-1.414,1.414-1.414
							h7.253c0.779,0,1.414,0.633,1.414,1.414v8.81c0,0.779-0.635,1.414-1.414,1.414H209.311z"/>
						<path style="fill:#FFFFFF;" d="M280.688,417.699c0,2.273-1.844,4.117-4.117,4.117H175.211c-2.274,0-4.117-1.844-4.117-4.117
							v-80.611c0-2.273,1.843-4.117,4.117-4.117H276.57c2.273,0,4.117,1.844,4.117,4.117V417.699z"/>
					</g>
					<rect x="212.104" y="459.977" style="fill:#585857;" width="27" height="4"/>
				</g>
				<g>
					<path style="fill:#D9D9D9;" d="M309.853,343.412c0,2.773-2.25,5.023-5.024,5.023h-5.618c-2.774,0-5.024-2.25-5.024-5.023
						v-5.619c0-2.773,2.25-5.023,5.024-5.023h5.618c2.774,0,5.024,2.25,5.024,5.023V343.412z"/>
					<path style="fill:#D9D9D9;" d="M309.853,365.078c0,2.775-2.25,5.025-5.024,5.025h-5.618c-2.774,0-5.024-2.25-5.024-5.025
						v-5.617c0-2.775,2.25-5.025,5.024-5.025h5.618c2.774,0,5.024,2.25,5.024,5.025V365.078z"/>
					<path style="fill:#D9D9D9;" d="M309.853,386.746c0,2.773-2.25,5.023-5.024,5.023h-5.618c-2.774,0-5.024-2.25-5.024-5.023
						v-5.619c0-2.774,2.25-5.024,5.024-5.024h5.618c2.774,0,5.024,2.25,5.024,5.024V386.746z"/>
				</g>
			</g>
			<g>
				<g>
					<rect x="185.983" y="344.088" style="opacity:0.3;fill:#D9D9D9;" width="23.896" height="12.426"/>
					<rect x="252.651" y="366.191" style="opacity:0.3;fill:#D9D9D9;" width="19.992" height="12.346"/>
					<rect x="176.903" y="353.766" style="opacity:0.3;fill:#D9D9D9;" width="16.488" height="15.533"/>
					<rect x="196.976" y="366.191" style="opacity:0.3;fill:#D9D9D9;" width="11.828" height="6.332"/>
					<rect x="222.782" y="337.199" style="opacity:0.3;fill:#D9D9D9;" width="11.828" height="6.332"/>
					<rect x="180.408" y="377.98" style="opacity:0.3;fill:#D9D9D9;" width="11.828" height="6.332"/>
					<rect x="258.625" y="385.945" style="opacity:0.3;fill:#D9D9D9;" width="11.828" height="6.332"/>
				</g>
				<g>
					<path style="fill:#FBDAD3;" d="M200.143,385.744c-8.344,4.91-12.277,12.328-5.85,12.766
						c6.428,0.439,22.051-13.211,22.051-13.211l-2.953-6.6C213.391,378.699,208.486,380.836,200.143,385.744z"/>
					<g>
						<g>
							<g>
								<g>
									<g>
										<polygon style="fill:#FFCDC5;" points="229.645,375.582 228.975,368.397 221.366,368.397 220.695,375.582 
											215.298,377.076 219.76,388.316 230.58,388.316 235.042,377.076 										"/>
									</g>
									<g>
										<path style="fill:#FBDAD3;" d="M234.165,365.748c0,4.684-4.032,8.48-9.007,8.48c-4.975,0-9.008-3.797-9.008-8.48
											c0-14.096,4.033-14.625,9.008-14.625C230.133,351.123,234.165,353.18,234.165,365.748z"/>
										<path style="fill:#FBDAD3;" d="M232.3,363.887c0,1.488,0.852,2.693,1.901,2.693s1.903-1.205,1.903-2.693
											c0-1.486-0.854-2.693-1.903-2.693S232.3,362.4,232.3,363.887"/>
										<path style="fill:#FBDAD3;" d="M214.101,363.887c0,1.488,0.852,2.693,1.901,2.693c1.052,0,1.905-1.205,1.905-2.693
											c0-1.486-0.854-2.693-1.905-2.693C214.953,361.193,214.101,362.4,214.101,363.887"/>
									</g>
								</g>
							</g>
						</g>
						<path style="fill:#DD7957;" d="M229.248,361.309c-0.082-0.01-0.164-0.02-0.245-0.031c-0.264-0.035-0.525-0.09-0.786-0.141
							c-0.15-0.029-0.302-0.059-0.453-0.09c-0.521-0.105-1.04-0.225-1.551-0.373c-0.467-0.137-0.926-0.297-1.372-0.492
							c-0.406-0.176-0.801-0.379-1.181-0.607c-0.35-0.209-0.687-0.439-1.014-0.684c-0.292-0.217-0.577-0.447-0.857-0.682
							c-0.233-0.195-0.462-0.397-0.688-0.6c-0.165-0.148-0.329-0.301-0.489-0.457c-0.099-0.096-0.197-0.195-0.289-0.299
							c-0.053-0.06-0.102-0.125-0.147-0.191c-0.006-0.008-0.017-0.033-0.026-0.037l-2.699-1.272l-1.161,4.266
							c5.298,3.867,11.628,2.789,13.703,1.992c0.17-0.064,0.025-0.139-0.072-0.17C229.703,361.369,229.474,361.338,229.248,361.309z
							"/>
						<g>
							<g>
								<g>
									<path style="opacity:0.5;fill:#F49090;" d="M224.065,366.66c0.008,0.449,0.46,0.811,1.01,0.803
										c0.551-0.01,0.991-0.383,0.983-0.834c-0.006-0.453-0.468-0.297-1.018-0.316C224.49,366.291,224.059,366.209,224.065,366.66
										z"/>
									<path style="fill:#594A42;" d="M227.679,364.877c0.012,0.717,0.525-0.274,1.184-0.283c0.655-0.01,1.201,0.961,1.189,0.246
										c-0.011-0.717-0.433-1.291-1.206-1.279C228.072,363.572,227.668,364.16,227.679,364.877z"/>
								</g>
							</g>
							<path style="fill:#594A42;" d="M220.192,364.895c0.012,0.717,0.526-0.273,1.184-0.283c0.655-0.01,1.202,0.961,1.19,0.246
								c-0.012-0.717-0.433-1.293-1.207-1.279C220.585,363.59,220.181,364.178,220.192,364.895z"/>
							<path style="fill:#F49090;" d="M228.949,369.023c0.025,1.602-1.706,3.074-3.871,3.109c-2.164,0.033-3.94-1.385-3.967-2.986
								c-0.024-1.604,1.753-0.123,3.918-0.158C227.194,368.955,228.924,367.42,228.949,369.023z"/>
							<path style="fill:#FFABAB;" d="M225.053,370.453c-1.025,0.016-1.952,0.357-2.643,0.881c0.706,0.502,1.643,0.814,2.668,0.799
								c1.025-0.018,1.951-0.359,2.643-0.881C227.015,370.75,226.078,370.438,225.053,370.453z"/>
							<path style="fill:#FFFFFF;" d="M228.029,368.336c-0.717,0.146-1.791,0.635-3,0.652c-1.112,0.018-2.121-0.363-2.838-0.522
								c0.277,0.662,0.982,1.377,2.841,1.348C226.938,369.785,227.752,369.016,228.029,368.336z"/>
						</g>
						<g>
							<g>
								<path style="fill:#DD7957;" d="M230.076,354.963c0,0,4.34,4.926,4.34,9.742c0,0,3.176-8.43-0.274-12.041"/>
								<path style="fill:#DD7957;" d="M220.375,354.963c0,0-4.339,4.926-4.339,9.742c0,0-3.176-8.43,0.274-12.041"/>
							</g>
							<path style="fill:#DD7957;" d="M233.314,348.742c0.133,0.113-1.95,1.272-2.092,1.314c-2.208,0.67-4.362-0.564-6.536-0.791
								c-2.442-0.254-5.205,0.16-7.188,1.705c-1.247,0.971-2.529,2.715-2.302,4.373c0.465,3.381,4.732,4.572,7.519,5.15
								c2.3,0.477,4.715,0.678,7.021,0.131c0.935-0.221,1.938-0.641,2.718-1.211c0.709-0.518,1.518-1.322,1.932-2.105
								c0.901-1.703,1.187-4.066,0.575-5.906C234.662,350.502,234.043,349.369,233.314,348.742z"/>
							<path style="fill:#DD7957;" d="M236.5,353.441c-0.051-0.582-0.261-1.352-0.609-1.832c0.064,0.088-1.352,0.484-1.443,0.49
								c-1.275,0.078-2.306-0.756-3.424-1.25c-0.861,1.736-1.237,4.807-1.592,6.781c-0.009,0.049-0.018,0.098-0.025,0.146
								c0.854,0.279,1.74,0.457,2.642,0.457c0.593,0,1.255-0.107,1.804-0.34c0.5-0.209,1.102-0.578,1.461-0.988
								C236.097,356.012,236.605,354.633,236.5,353.441z"/>
						</g>
					</g>
					<path style="fill:#FBDAD3;" d="M251.543,389.117c-7.569-7.385-12.174-10.994-12.174-10.994l-4.415,5.568
						c0,0,13.245,18.205,19.954,19.756C261.618,404.996,259.113,396.506,251.543,389.117z"/>
					<g>
						<path style="fill:#F24656;" d="M243.564,378.465l-13.919-3.299c0,0,0.118,3.264-4.474,3.264c-4.592,0-4.475-3.264-4.475-3.264
							l-13.984,3.275l5.374,13.797l-1.39,24.426h28.949l-1.489-24.025L243.564,378.465z"/>
					</g>
					<g>
						<path style="fill:#FFFFFF;" d="M232.102,390.549c0,1.57-1.272,2.844-2.843,2.844h-8.192c-1.57,0-2.843-1.273-2.843-2.844
							v-3.121c0-1.568,1.272-2.842,2.843-2.842h8.192c1.57,0,2.843,1.273,2.843,2.842V390.549z"/>
						<polygon style="fill:#F24656;" points="223.713,386.242 228.229,388.85 223.713,391.457 						"/>
					</g>
					<polygon style="fill:#F24656;" points="243.564,378.465 236.586,390.065 247.021,399.869 255.848,391.31 					"/>
					<polygon style="fill:#F24656;" points="206.764,378.418 213.531,391.516 202.221,397.092 195.322,387.184 					"/>
					<g>
						<g>
							<path style="fill:#FBDAD3;" d="M259.378,389.611c-0.353-3.246-0.918-6.521-0.603-9.795c-1.972,0.164-3.943,0.324-5.912,0.516
								c0.077,0.6,0.019,1.113-0.123,1.805c-0.258,1.275-0.332,2.596-0.527,3.885c-0.565,3.754-1.404,7.498-1.311,11.314
								c0.066,2.787,1.481,5.217,4.266,6.158c0.837,0.281,1.731,0.287,2.519-0.26c1.266-0.877,1.406-2.809,1.603-4.088
								c0.362-2.32,0.454-4.572,0.316-6.885C259.552,391.375,259.478,390.492,259.378,389.611z"/>
						</g>
						<g>
							<path style="fill:#FBDAD3;" d="M252.677,374.775c0,0-0.979-4.789-1.353-6.572c-0.374-1.779,2.185-2.982,3.024,1.566
								c0.82,4.438,1.4,5.207,1.4,5.207"/>
							<path style="fill:#FBDAD3;" d="M254.333,373.807c0,0,1.379-4.996,1.777-6.85c0.398-1.854,3.276-1.969,2.152,2.719
								c-1.097,4.574-0.88,5.543-0.88,5.543"/>
							<path style="fill:#FBDAD3;" d="M260.01,376.188c-0.454,2.182-2.126,6.207-2.126,6.207l0.685,2.514l-6.075,0.078l1.205-3.115
								l-0.488-0.684c0,0-2.988-3.066-3.078-4.895c-0.09-1.828,2.653-3.691,2.653-3.691"/>
							<path style="fill:#FBDAD3;" d="M259.317,378.641c0,0,1.124-3.088,0.833-4.103c-0.291-1.014-2.413-2.744-2.413-2.744
								l-1.424,0.229l-0.729,3.064"/>
						</g>
					</g>
					<g>
						<polygon style="fill:#D9D9D9;" points="271.1,406.701 179.245,406.701 173.402,414.738 276.941,414.738 						"/>
						<rect x="173.402" y="414.738" style="fill:#ECECEC;" width="103.539" height="2.838"/>
					</g>
					<g>
						<g>
							<polygon style="fill:#BF8F60;" points="239.286,407.709 210.608,408.16 211.003,392.006 238.941,392.006 							"/>
							<polygon style="fill:#CEA06E;" points="238.941,392.006 238.942,407.656 240.923,413.215 240.926,399.754 							"/>
							<polygon style="fill:#CEA06E;" points="211.003,392.006 210.967,407.656 208.986,413.215 208.986,399.83 							"/>
							<polygon style="fill:#E1B785;" points="245.58,397.781 238.941,392.006 240.926,399.836 248.375,405.953 							"/>
							<polygon style="fill:#E1B785;" points="204.436,397.781 201.641,405.953 209.079,399.84 211.003,392.006 							"/>
						</g>
						<g>
							<polygon style="fill:#ECECEC;" points="238.336,407.848 238.338,396.685 236.683,390.154 213.375,390.154 211.693,396.682 
								211.693,407.848 213.196,403.629 236.7,403.258 							"/>
							<g>
								<rect x="211.693" y="396.684" style="fill:#D9D9D9;" width="26.643" height="11.164"/>
							</g>
						</g>
						<g>
							<rect x="208.986" y="399.833" style="fill:#E1B785;" width="31.938" height="13.382"/>
						</g>
					</g>
					<g>
						<g>
							<g>
								<path style="fill:#FBDAD3;" d="M199.951,402.252c9.121,2.365,14.025,2.275,14.025,2.275l0.982-5.193
									c0,0-15.163-7.979-20.515-6.471C188.539,394.525,190.829,399.887,199.951,402.252z"/>
							</g>
						</g>
						<g>
							<path style="fill:#FBDAD3;" d="M216.04,399.223c0,0,4.465,0.996,6.129,1.357c1.664,0.361,1.713,3.004-2.492,1.984
								c-4.105-0.996-4.982-0.795-4.982-0.795L216.04,399.223z"/>
							<path style="fill:#FBDAD3;" d="M214.582,400.656c0,0,6.634,2.078,8.269,2.551c1.635,0.473,1.506,3.113-2.621,1.811
								c-4.027-1.273-6.932-0.563-6.932-0.563L214.582,400.656z"/>
							<path style="fill:#FBDAD3;" d="M215.333,403.01c0,0,4.316,1.51,5.927,2.064c1.61,0.553,1.351,3.184-2.707,1.678
								c-3.96-1.469-4.855-1.373-4.855-1.373L215.333,403.01z"/>
							<path style="fill:#FBDAD3;" d="M212.651,405.516c0,0,3.695,2.397,5.12,3.109s3.173-1.316-0.498-3.035
								c-3.583-1.678-4.079-2.359-4.079-2.359L212.651,405.516z"/>
							<path style="fill:#FBDAD3;" d="M213.35,405.941c0,0-2.729-1.549-2.989-2.814l-2.076-0.135l1.146-4.902l2.164,0.666
								c0,0,1.389-1.539,2.482-1.443c1.093,0.1,3.952,0.193,4.632-0.289c0.682-0.482,1.691,2.295-1.547,2.473l-1.599,1.068"/>
						</g>
					</g>
					<g>
						<path style="fill:#CEA06E;" d="M268.56,411.81c0,0.574-2.425,1.039-5.415,1.039s-5.414-0.465-5.414-1.039
							c0-0.574,2.424-1.039,5.414-1.039S268.56,411.236,268.56,411.81z"/>
						<polygon style="fill:#CEA06E;" points="257.129,407.76 257.731,411.81 268.56,411.81 269.242,407.76 						"/>
						<path style="fill:#E1B785;" d="M270.044,407.52c0,0.73-3.088,1.322-6.898,1.322c-3.81,0-6.898-0.592-6.898-1.322
							c0-0.732,3.089-1.324,6.898-1.324C266.956,406.195,270.044,406.787,270.044,407.52z"/>
						<polygon style="fill:#E1B785;" points="255.886,405.232 256.267,407.648 270.044,407.648 270.405,405.232 						"/>
						<ellipse style="fill:#CEA06E;" cx="263.146" cy="405.232" rx="7.26" ry="1.324"/>
						<path style="fill:#A57B51;" d="M268.148,405.473c0,0.504-2.24,0.912-5.003,0.912c-2.764,0-5.004-0.408-5.004-0.912
							c0-0.502,2.24-0.91,5.004-0.91C265.908,404.563,268.148,404.971,268.148,405.473z"/>
						<g>
							<defs>
								<path id="SVGID_00000147204468437350983680000000823818372580426890_" d="M268.148,405.473c0,0.504-2.24,0.912-5.003,0.912
									c-2.764,0-5.004-0.408-5.004-0.912c0-0.502,0.531-10.729,5.004-10.729C265.908,394.744,268.148,404.971,268.148,405.473z"/>
							</defs>
							<clipPath id="SVGID_00000093858257798396648410000005721654294182515901_">
								<use xlink:href="#SVGID_00000147204468437350983680000000823818372580426890_"  style="overflow:visible;"/>
							</clipPath>
							<g style="clip-path:url(#SVGID_00000093858257798396648410000005721654294182515901_);">
								<g>
									<path style="fill:#A2C037;" d="M262.523,406.266c0-0.33-0.301-0.572-0.451-0.842c-0.271-0.451-0.391-0.902-0.421-1.443
										c-0.061-1.385,0.421-2.619,0.632-3.971c0.24-1.234,0.571-2.978-0.12-4.121c1.053,1.805,1.774,3.789,1.895,5.895
										c0.03,0.631,0.392,4.783-0.481,4.662"/>
								</g>
								<g>
									<path style="fill:#A2C037;" d="M262.786,408.15c0.088-0.318-0.14-0.631-0.213-0.932c-0.142-0.506-0.139-0.973-0.024-1.504
										c0.307-1.35,1.096-2.412,1.656-3.662c0.558-1.127,1.338-2.723,0.972-4.008c0.539,2.02,0.712,4.125,0.272,6.188
										c-0.138,0.617-0.885,4.717-1.695,4.371"/>
								</g>
								<g>
									<path style="fill:#A2C037;" d="M262.739,408.756c-0.091-0.32-0.446-0.467-0.666-0.688
										c-0.385-0.357-0.624-0.758-0.803-1.271c-0.439-1.313-0.316-2.631-0.486-3.99c-0.109-1.252-0.272-3.021-1.252-3.928
										c1.51,1.443,2.751,3.154,3.447,5.145c0.202,0.6,1.693,4.49,0.821,4.615"/>
								</g>
							</g>
						</g>
					</g>
					<g>
						<g>
							<path style="fill:#868686;" d="M196.337,410.313c0,0.56-1.994,1.016-4.454,1.016c-2.46,0-4.454-0.455-4.454-1.016
								s1.994-1.014,4.454-1.014C194.343,409.299,196.337,409.752,196.337,410.313z"/>
							<ellipse style="fill:#868686;" cx="191.883" cy="411.666" rx="4.454" ry="1.014"/>
							<polyline style="fill:#868686;" points="187.429,410.313 187.429,411.666 196.337,411.666 196.337,410.256 							"/>
						</g>
						<g>
							<path style="fill:#F24656;" d="M196.769,408.668c0,0.615-2.188,1.113-4.886,1.113c-2.699,0-4.887-0.498-4.887-1.113
								c0-0.613,2.188-1.113,4.887-1.113C194.581,407.555,196.769,408.055,196.769,408.668z"/>
							<path style="fill:#F24656;" d="M196.769,410.152c0,0.615-2.188,1.113-4.886,1.113c-2.699,0-4.887-0.498-4.887-1.113
								c0-0.615,2.188-1.113,4.887-1.113C194.581,409.039,196.769,409.537,196.769,410.152z"/>
							<polyline style="fill:#F24656;" points="186.996,408.668 186.996,410.152 196.769,410.152 196.769,408.607 							"/>
						</g>
						<g>
							<path style="fill:#868686;" d="M196.832,408.051c0,0.623-2.216,1.129-4.949,1.129s-4.949-0.506-4.949-1.129
								c0-0.623,2.216-1.127,4.949-1.127S196.832,407.428,196.832,408.051z"/>
							<path style="fill:#868686;" d="M196.832,409.555c0,0.623-2.216,1.127-4.949,1.127s-4.949-0.504-4.949-1.127
								c0-0.623,2.216-1.127,4.949-1.127S196.832,408.932,196.832,409.555z"/>
							<polyline style="fill:#868686;" points="186.934,408.051 186.934,409.555 196.832,409.555 196.832,407.988 							"/>
						</g>
						<g>
							<path style="fill:#6F6F6E;" d="M196.832,406.535c0,0.623-2.216,1.129-4.949,1.129s-4.949-0.506-4.949-1.129
								c0-0.623,2.216-1.127,4.949-1.127S196.832,405.912,196.832,406.535z"/>
							<path style="fill:#6F6F6E;" d="M196.832,408.039c0,0.623-2.216,1.127-4.949,1.127s-4.949-0.504-4.949-1.127
								c0-0.623,2.216-1.127,4.949-1.127S196.832,407.416,196.832,408.039z"/>
							<polyline style="fill:#6F6F6E;" points="186.934,406.535 186.934,408.039 196.832,408.039 196.832,406.473 							"/>
						</g>
						<g>
							<path style="fill:#585857;" d="M196.355,404.978c0,0.565-2.003,1.02-4.473,1.02c-2.471,0-4.473-0.455-4.473-1.02
								c0-0.563,2.002-1.019,4.473-1.019C194.352,403.959,196.355,404.416,196.355,404.978z"/>
							<path style="fill:#585857;" d="M196.355,406.338c0,0.563-2.003,1.02-4.473,1.02c-2.471,0-4.473-0.457-4.473-1.02
								s2.002-1.02,4.473-1.02C194.352,405.318,196.355,405.775,196.355,406.338z"/>
							<polyline style="fill:#585857;" points="187.41,404.978 187.41,406.338 196.355,406.338 196.355,404.922 							"/>
							<path style="fill:#868686;" d="M194.776,404.978c0,0.365-1.295,0.66-2.894,0.66s-2.895-0.295-2.895-0.66
								c0-0.363,1.296-0.658,2.895-0.658S194.776,404.615,194.776,404.978z"/>
						</g>
					</g>
				</g>
				<g>
					<g>
						<polyline style="fill:#F24656;" points="251.636,361.83 254.025,366.371 256.714,361.711 						"/>
						<g>
							<rect x="241.759" y="354.926" style="fill:#F24656;" width="25.745" height="7.644"/>
							
								<text transform="matrix(1 0 0 1 244.0313 360.5801)" style="fill:#FFFFFF; font-family:'Montserrat-ExtraBold'; font-size:4.6614px;">Follow</text>
						</g>
					</g>
					<polygon style="opacity:0.3;fill:#3F3E3E;" points="271.406,356.162 246.718,355.518 247.123,347.553 270.692,347.315 					"/>
					<rect x="246.485" y="346.678" style="fill:#F24656;" width="24.283" height="8.608"/>
					<g>
						<polygon style="opacity:0.3;fill:#3F3E3E;" points="262.535,348.398 243.004,347.404 242.85,338.777 261.669,338.777 						
							"/>
						<rect x="242.869" y="338.379" style="fill:#F24656;" width="18.819" height="9.113"/>
						
							<text transform="matrix(1 0 0 1 245.3662 344.8301)" style="fill:#FFFFFF; font-family:'Montserrat-ExtraBold'; font-size:5.7187px;">Like</text>
					</g>
					
						<text transform="matrix(1 0 0 1 249.2461 352.5576)" style="fill:#FFFFFF; font-family:'Montserrat-ExtraBold'; font-size:5.2497px;">Share</text>
				</g>
			</g>
			<path style="opacity:0.6;fill:#FFFFFF;" d="M280.688,337.088c0-2.273-1.844-4.117-4.117-4.117h-72.706l-32.771,32.77v51.959
				c0,2.273,1.843,4.117,4.117,4.117h23.717l81.76-81.762V337.088z"/>
		</g>
	</g>
</g>
</svg>
